<global>
amp_veltrack=0
ampeg_release=0.35

<group>
amp_veltrack=0
ampeg_release=0.20
group_label=PP
lpc_hicc1=42
lpc_locc1=0

<region>
hikey=g#6
hivel=127
lokey=g6
loop_end=316305
loop_mode=loop_continuous
loop_start=90051
loop_xfade=27415
lovel=0
lpc=CCuwQW9iBsHKLrq/XqhtP+Os0z9w7mg/JGE3QJ0cgED40xxA2fzhva0rzT/QQ1U+04hvQCgXmMBmcQbBYvkWwEftnT+GlYRAFbOXv+W8a78aQxnAcNRkv7G5D8C9Y5G/
lpc_rms=-27.54
pitch_keycenter=G#6
sample=Flute_overblown_sus_PP_G#6.opus

<region>
hikey=g#5
hivel=127
lokey=g5
loop_end=307092
loop_mode=loop_continuous
loop_start=87428
loop_xfade=26617
lovel=0
lpc=jKW2Qe8S1sFoIppA0ZnePquU+z/lOnlAnxeovxlCC0BJ0TK/06xlwGUNO0BmsNm++5ZsQABXb8CZM3tA4AVjv0dtBr/B7jC+bwV1P0Pu+L75UwdAebeMP3cqNkBgSYnA
lpc_rms=-32.50
pitch_keycenter=G#5
sample=Flute_overblown_sus_PP_G#5.opus

<region>
hikey=g#4
hivel=127
lokey=g4
loop_end=279239
loop_mode=loop_continuous
loop_start=79499
loop_xfade=24203
lovel=0
lpc=ueeDQrlhHsPF8vxC0AAIwo38ZkBF1vo+V9IVwDXQS0DAytLAyOarwCfPQ0HkQL3Av+HKQB/6DsEJ3O5AyXSuwA2bUUCHjt+/uBCRQN752cACuJxAeYQawJOa5T7JLaw/
lpc_rms=-26.45
pitch_keycenter=G#4
sample=Flute_overblown_sus_PP_G#4.opus

<region>
hikey=f#6
hivel=127
lokey=f6
loop_end=318798
loop_mode=loop_continuous
loop_start=90761
loop_xfade=27631
lovel=0
lpc=FyFXQZJMycDwCTDAcJxyQAY717+htIc/uhSmQAiUdr+N1Os/eZ2rv5FiRz/Rgyi/whQSQPIWOL87Biq/HXXPv1cpyMDSZm4/ClnAP6cJlb6mcMY/w6w6wDydCsCSxpi/
lpc_rms=-30.30
pitch_keycenter=F#6
sample=Flute_overblown_sus_PP_F#6.opus

<region>
hikey=f#5
hivel=127
lokey=f5
loop_end=278573
loop_mode=loop_continuous
loop_start=79309
loop_xfade=24145
lovel=0
lpc=3gwLQimQb8JLYvlBGokFwOnQwUDhbjPATfopv4slDD+vNBTAPNrNPnmQoUAA1om9r7ZoQDur7cDnH6xAxohdwB5VPkBTc+4+s7KIQNMkIsAnjjq8cDRovaiB8L8iYKtA
lpc_rms=-28.85
pitch_keycenter=F#5
sample=Flute_overblown_sus_PP_F#5.opus

<region>
hikey=f#4
hivel=127
lokey=f4
loop_end=277183
loop_mode=loop_continuous
loop_start=78913
loop_xfade=24024
lovel=0
lpc=RpRvQjmAEsNSkutCK8X0wQcTkD8ok15Aud3vwM0tFED/HCJAOZgDwd/ZKkEA7IzA+eMhQP7pB8Ha5AdBeqyYwBr37j8hHgZAt/gNQHJmocAN11A/8FwYPmAzp7/kov0/
lpc_rms=-28.67
pitch_keycenter=F#4
sample=Flute_overblown_sus_PP_F#4.opus

<region>
hikey=e6
hivel=127
lokey=d#6
loop_end=319894
loop_mode=loop_continuous
loop_start=91073
loop_xfade=27726
lovel=0
lpc=HEcjQvN21MF1fPTACJKpvnSTsEA8zOZALhy0vpaXJ0DXn2i+KRqtv4DEPUDhYj3AZGxvQEtcrL/fqxm/LimaP90ng0D96CPBb5KwwQr7FkGt9VNBCAEnQBMvo8DDpgXB
lpc_rms=-24.15
pitch_keycenter=E6
sample=Flute_overblown_sus_PP_E6.opus

<region>
hikey=e5
hivel=127
lokey=d#5
loop_end=276029
loop_mode=loop_continuous
loop_start=78585
loop_xfade=23924
lovel=0
lpc=ErcFQupRg8L93SFCjTYdwbh3JkDVh5lA17knwIoFsz8Zh6m/YaGLwKXvuUDhPN3ABToSQfp03sDPpbxATeXAv5CmST28kT4/TO1TPn8EaMDJR3RAJPaFwH9kKkD5oK8/
lpc_rms=-29.68
pitch_keycenter=E5
sample=Flute_overblown_sus_PP_E5.opus

<region>
hikey=e4
hivel=127
lokey=d#4
loop_end=266465
loop_mode=loop_continuous
loop_start=75862
loop_xfade=23095
lovel=0
lpc=+fQaQmr5vsLWf5VC7tdgwVR1IMA++IC/1ZoWwFWKrkCu/YTAUOQHwL8rM0Bsmqc/cEHzP0fx/sCuKQVBBYswwAeSsb9Y0to/0dY5QCnXyMB3spg9p0zYPxXQAkDtrIe/
lpc_rms=-33.18
pitch_keycenter=E4
sample=Flute_overblown_sus_PP_E4.opus

<region>
hikey=d6
hivel=127
lokey=c#6
loop_end=329033
loop_mode=loop_continuous
loop_start=93675
loop_xfade=28519
lovel=0
lpc=yD2cQaFANMErbRbAdyArQGloBL//gVg/tVE+PkvEaz+HtO0+Zg1Fv3n3J0D6qYW/cNfqP0TRd784RDo/kVyMP1FEFT31gqw/7Wh6P+ACP8BipOvAbMiCv4w1hEC2Pog/
lpc_rms=-30.96
pitch_keycenter=D6
sample=Flute_overblown_sus_PP_D6.opus

<region>
hikey=d5
hivel=127
lokey=c#5
loop_end=280465
loop_mode=loop_continuous
loop_start=79847
loop_xfade=24309
lovel=0
lpc=kyAhQqLNmsLksjdCNIdjwWmrPEG1SS+/b5/Iv0iJq0ASsD7BvWFYP7JEiED4P5hASaUoP+X4EcF5aftA0bQDwY5YrUDgUsc+pd8/QPC3GD/NfZG8we5ywDjg78CRlyBB
lpc_rms=-28.33
pitch_keycenter=D5
sample=Flute_overblown_sus_PP_D5.opus

<region>
hikey=d4
hivel=127
lokey=c#4
loop_end=311478
loop_mode=loop_continuous
loop_start=88677
loop_xfade=26997
lovel=0
lpc=scN6Qgz+F8P/zPNClboNwgvx30CC4xjAGYJHv59TAj8ldqLAMqhFwHhBRkFMomU/Uh5Qwbc5kkD6nZJARLZSQIzQBcEtEWY9RUSzQOzr8MBjg7VAk2h/PyZQbMCieO8/
lpc_rms=-29.24
pitch_keycenter=D4
sample=Flute_overblown_sus_PP_D4.opus

<region>
hikey=c7
hivel=127
lokey=b6
loop_end=390030
loop_mode=loop_continuous
loop_start=111041
loop_xfade=33805
lovel=0
lpc=u0y1QXK2vb+Sx6zAkLS5P1fkXkBlw3k/j8WsQFmVtEBKwy5AYbPbv9IxDD8D6hzBEGByvzpNO0DGSqNAnMsJwO4Loj2b2zzArLRqwHLTJ8AmSRJAzkkMQKwe978u46jA
lpc_rms=-23.30
pitch_keycenter=C7
sample=Flute_overblown_sus_PP_C7.opus

<region>
hikey=c6
hivel=127
lokey=b5
loop_end=269470
loop_mode=loop_continuous
loop_start=76717
loop_xfade=23356
lovel=0
lpc=fMjEQYTYr8FYJ65ArFawPwxXhD7TeCW/R9bxPWyOCUBxihTAgPU7Pil6m79ZbFJA1+UMP5X1NcDHU6i78UdDP0QFBED7hBzAwx4EQJ7Ko79tTilAGTaHwCpt58Cn9wY/
lpc_rms=-30.66
pitch_keycenter=C6
sample=Flute_overblown_sus_PP_C6.opus

<region>
hikey=c5
hivel=127
lokey=b4
loop_end=274518
loop_mode=loop_continuous
loop_start=78154
loop_xfade=23794
lovel=0
lpc=QSE5QgdAv8J3B2lCM+6jwLAxGsBXMf5AmjMbwbhYcz+efri/BoW0v3mCJUEIJ1HA2+zSv3rdpsDwiCdAq1N8QJ0wqL5Ki/U/9HshwEQRRsA2w31AAKfNwDtymECl5b4/
lpc_rms=-28.01
pitch_keycenter=C5
sample=Flute_overblown_sus_PP_C5.opus

<region>
hivel=127
key=C4
loop_end=282669
loop_mode=loop_continuous
loop_start=80475
loop_xfade=24500
lovel=0
lpc=rq6TQqqMMMPiQgFDzM5twXFsuMDqZxLB/cwqQcVtbMF6Ncw/nxNTv10EXEE655HAPZj7vx4upb84+iW/xosaP550H8CrR49AI5eCP9T+z78hA64/xSddvkuqX8D5zwxA
lpc_rms=-29.89
sample=Flute_overblown_sus_PP_C4.opus

<region>
hikey=a#6
hivel=127
lokey=a6
loop_end=284889
loop_mode=loop_continuous
loop_start=81107
loop_xfade=24692
lovel=0
lpc=DKLaQYQnD8FGA0XAMZ3iPwt68D8fV4w/S82sQK8VtD8Ltb5AplAmQMHNQz8esKm9eBuuwB3UKcHgKC2/FqX7QGWxCUAVW96/9mHRPohmDsA3ogLAMDaIv0aCWcAJ2ZJA
lpc_rms=-22.48
pitch_keycenter=A#6
sample=Flute_overblown_sus_PP_A#6.opus

<region>
hikey=a#5
hivel=127
lokey=a5
loop_end=267904
loop_mode=loop_continuous
loop_start=76271
loop_xfade=23220
lovel=0
lpc=FR3LQWr/8sHhBCdBulECP27IUz80Rqk/879Kv4u+oj2kwu8/OlgzwGTVR0BJ6kjArfmrQNW0X8AgcSJAjZyqvycnGz+GHuk+0ih9PioKnb805mlAsbNrv1WMfUAN4AfB
lpc_rms=-29.93
pitch_keycenter=A#5
sample=Flute_overblown_sus_PP_A#5.opus

<region>
hikey=a#4
hivel=127
lokey=a4
loop_end=278942
loop_mode=loop_continuous
loop_start=79414
loop_xfade=24177
lovel=0
lpc=4etjQmUqAMOrNLpCaoCnwRlX4T8IFHNAzixdwBhF7MC+RyZBVCSEwTlim0GUWAbBmD9DQEG+HsCuu9o/Y5FLwJ3JC0DoOHG/WkKGQMqBwsDr/adAN4JnPvSJ8sDBFsJA
lpc_rms=-26.56
pitch_keycenter=A#4
sample=Flute_overblown_sus_PP_A#4.opus

<group>
amp_veltrack=0
ampeg_release=0.20
group_label=MF
lpc_hicc1=84
lpc_locc1=43
volume=-6.0

<region>
hikey=g#6
hivel=127
lokey=g6
loop_end=317614
loop_mode=loop_continuous
loop_start=90424
loop_xfade=27529
lovel=0
lpc=HXv6QUN0RsFFOAnA6w5AP4q3v7/aT85Aje91QHXKhUCdcJRAfLdUwLx9c0BWhOG+O0ZhQB3MNsDsUGzBnYLcwLX++0Dt/vw/mpgUQB13aMC6YaHAQL/Sv9CwOMAcqBa/
lpc_rms=-22.15
pitch_keycenter=G#6
sample=Flute_overblown_sus_MF_G#6.opus

<region>
hikey=g#5
hivel=127
lokey=g5
loop_end=285519
loop_mode=loop_continuous
loop_start=81286
loop_xfade=24747
lovel=0
lpc=EIsJQgX6JcJj/otBPTXRP2j318A9dApBztSUP6O9RL8CDMRAQH/GwAqxBkFhhbTA/xZNQEwGUz/y38xALUyJv2dArr/HUBW/8LmyQICmFcCEqpFA4myjPrP/eUCFVJu/
lpc_rms=-22.31
pitch_keycenter=G#5
sample=Flute_overblown_sus_MF_G#5.opus

<region>
hikey=g#4
hivel=127
lokey=g4
loop_end=283077
loop_mode=loop_continuous
loop_start=80591
loop_xfade=24535
lovel=0
lpc=EUaAQlN0KcNShBlD5Hphwm1eNEHmucRAtI/FwMjJLcEaSS9BD1IywXsGoUFcU43B7wsTQdQg6sDI0QlBKnsMwQ4H/kAxY2nAMtQyQKuG5cDF8UBBxQEVwd0FKMApo51A
lpc_rms=-23.51
pitch_keycenter=G#4
sample=Flute_overblown_sus_MF_G#4.opus

<region>
hikey=f#6
hivel=127
lokey=f6
loop_end=288764
loop_mode=loop_continuous
loop_start=82210
loop_xfade=25028
lovel=0
lpc=SBeKQcN/KMFNGhTAqu0pQNL44L76SF1AdqQrQKLqCb9WvSBAhiaxvmszoT/QvfI+p4M4QCOJnr/zZlxAZlAnwAMjEMFBw0NAgYbZQOzTtb/KiY8/KQ62v5QQM8AlJJo/
lpc_rms=-27.42
pitch_keycenter=F#6
sample=Flute_overblown_sus_MF_F#6.opus

<region>
hikey=f#5
hivel=127
lokey=f5
loop_end=288006
loop_mode=loop_continuous
loop_start=81994
loop_xfade=24963
lovel=0
lpc=RRUYQqnsdcKglglC0r/fwIsZn0CjfY1AlxaJv2BQpcBjuLhABS/1wA+6KkFS0WPAXkcGQSzU68C3/RlAhO4zv1t5Aj/8YYVAewhHPxlOKT/FIhpAm1UQwAUE6sBBnkZB
lpc_rms=-24.95
pitch_keycenter=F#5
sample=Flute_overblown_sus_MF_F#5.opus

<region>
hikey=f#4
hivel=127
lokey=f4
loop_end=281558
loop_mode=loop_continuous
loop_start=80159
loop_xfade=24404
lovel=0
lpc=ztZtQppRI8NDKx5D7J2HwrzhsEF6lMzACw7zPwZiX8FFL3hB2QQ8wWMge0HKpWHBKAhBQSpMjMH9sW9B+ZXKwOXrmL+i+LtAKu8zPxvs38C/nA5B3VXNwEXkQsDvlIRA
lpc_rms=-25.03
pitch_keycenter=F#4
sample=Flute_overblown_sus_MF_F#4.opus

<region>
hikey=e6
hivel=127
lokey=d#6
loop_end=284871
loop_mode=loop_continuous
loop_start=81102
loop_xfade=24691
lovel=0
lpc=nbEMQmM3BsL0HptAX64gPsIBVD/2kQZBaCfzP9h6J8ATtW9AlOt6wE/6XEDFdh7AeDLWP00YoL/lIBs/c1SgvgOdYj9K3OG/TzjWwWuKj0GwawZB+vPewD+CTUCsJjLB
lpc_rms=-22.36
pitch_keycenter=E6
sample=Flute_overblown_sus_MF_E6.opus

<region>
hikey=e5
hivel=127
lokey=d#5
loop_end=288554
loop_mode=loop_continuous
loop_start=82151
loop_xfade=25010
lovel=0
lpc=Fy0AQrwVXsJ1a+BBoP9TwOfH+7+MrCxBYbSDwDb1n8DhKQpB6Q8+wcjSIUFnjKrA+/iRQPQPNcAFh4U/MhGQPXBcYT9wuhpAiB4lP8dDkMBaJ8pAFnP6wJGXpj/4sZtA
lpc_rms=-26.74
pitch_keycenter=E5
sample=Flute_overblown_sus_MF_E5.opus

<region>
hikey=e4
hivel=127
lokey=d#4
loop_end=269597
loop_mode=loop_continuous
loop_start=76753
loop_xfade=23367
lovel=0
lpc=F/gWQgTIw8KHRLNCUtgcwqGBbkHbN+q/p7YpvztGasBQCdc+HkmiwDqxFEFP2azA62exQB5w4cCP4CdBJ502wT1BpkBWooc+hpN7vu8PLcDTej9Aep6PwPYJ4kC1b2DA
lpc_rms=-29.52
pitch_keycenter=E4
sample=Flute_overblown_sus_MF_E4.opus

<region>
hikey=d6
hivel=127
lokey=c#6
loop_end=337608
loop_mode=loop_continuous
loop_start=96116
loop_xfade=29262
lovel=0
lpc=k+uYQcRlhcH8h5C/4diVQLNlC8CShho/MxIBQBC9EcCac6A/Nkytv4M1DUBjO8O/JD00PmgXuz7JT2e/jgUMPwpZXj8KkK+/YPEAQM8cPcCIHvHACRc8v+wRDkFPxm7A
lpc_rms=-27.62
pitch_keycenter=D6
sample=Flute_overblown_sus_MF_D6.opus

<region>
hikey=d5
hivel=127
lokey=c#5
loop_end=275867
loop_mode=loop_continuous
loop_start=78538
loop_xfade=23910
lovel=0
lpc=vxkGQov/k8JePVZCvGxtwRTTw0D69II/pE+2vxtir8CRZ4NACobFwHlVFUHu0HvAJeaSQHYex8Du5rs//zsKwGmtSUA+LGQ+hmKHQAMEn8BkeRxAVyp1v7x3scBRj8BA
lpc_rms=-26.04
pitch_keycenter=D5
sample=Flute_overblown_sus_MF_D5.opus

<region>
hikey=d4
hivel=127
lokey=c#4
loop_end=286669
loop_mode=loop_continuous
loop_start=81614
loop_xfade=24847
lovel=0
lpc=5u9MQt39A8MyNO5CPlk+wlZHAUEjRbNAD+ygQKIDf8EN8hFBUScNwcDhI0F14gnB7OgRQY1B4sAil+9AFNjlwCQ07z/O0Sg/6vaeQAMfIcFwiAhB4a2qwCX1oz9jazk/
lpc_rms=-28.89
pitch_keycenter=D4
sample=Flute_overblown_sus_MF_D4.opus

<region>
hikey=c7
hivel=127
lokey=b6
loop_end=376854
loop_mode=loop_continuous
loop_start=107289
loop_xfade=32663
lovel=0
lpc=EaXjQKWguL44msC/nH03P4CQ375LRB4/BBEgQJ30sj9YKIw//MePP+htDb9jgwHA3n9zvV9dtD+bvRpAIus+P0a2Yj5rq0I9Z79jv6aWQ7+1dn8/0BE6Py3iFr/Zfa6/
lpc_rms=-28.19
pitch_keycenter=C7
sample=Flute_overblown_sus_MF_C7.opus

<region>
hikey=c6
hivel=127
lokey=b5
loop_end=339546
loop_mode=loop_continuous
loop_start=96668
loop_xfade=29430
lovel=0
lpc=qhikQZSuhsGvBI9AGM0ZQIrjYsCCIWRAjBMSwHbEsD9yOwA+4QM1wH/+RkAOTq+/Mz79PyAXGMCYOBM+tv/JPg+arj8tfNm/beeYP8AFkL/597E/jSapvjuoD8FTi8K+
lpc_rms=-28.30
pitch_keycenter=C6
sample=Flute_overblown_sus_MF_C6.opus

<region>
hikey=c5
hivel=127
lokey=b4
loop_end=319528
loop_mode=loop_continuous
loop_start=90969
loop_xfade=27695
lovel=0
lpc=3WUZQrIkv8JN4aNC9ZC9wZBYK0CUiA/AbIbAQMuGbMEesxhBL2LIwNUjTkF+By3B9NbcQNXb+MCVvvxAdHvjwJiAl0CYb3PALI8UQc56TcGqIypBnXKtwDPEwD++hOI+
lpc_rms=-25.74
pitch_keycenter=C5
sample=Flute_overblown_sus_MF_C5.opus

<region>
hivel=127
key=C4
loop_end=287259
loop_mode=loop_continuous
loop_start=81782
loop_xfade=24898
lovel=0
lpc=m7MyQmIK3sJzvbpCLaENwitRNkHeSqhA8FXVwDw5nsDldAtASfDxv4b400C4bcvAot37QK4y4sBMzcA/qMUnPw34WL9sCUi//LLEQNHB8cBAqAdB8XaDwCcQ1sAZTbFA
lpc_rms=-29.60
sample=Flute_overblown_sus_MF_C4.opus

<region>
hikey=a#6
hivel=127
lokey=a6
loop_end=279267
loop_mode=loop_continuous
loop_start=79506
loop_xfade=24205
lovel=0
lpc=eqkHQg6CQsG5lgnAgAd9QJIZHcAgJyxAq8aiQNUmf0A6OMhAcltHP6l/1j4ISa8/3xqCwCAAv8HrcQRBSCGrQI1Nsb958RdABadRv4LNQMCvqzTA8NKDwGT7Kr/eBVVA
lpc_rms=-19.27
pitch_keycenter=A#6
sample=Flute_overblown_sus_MF_A#6.opus

<region>
hikey=a#5
hivel=127
lokey=a5
loop_end=329281
loop_mode=loop_continuous
loop_start=93745
loop_xfade=28540
lovel=0
lpc=aka6QSQMzsHKR7tAtfIXQHZrw8C1ouZAg4UjPlqwG8CboVpAfTCkwLMboD8/oB3ANxvlQM7Btb8rT+k+SC1jwJ8ppL4Vvjw/vc8fP6QxCkCoxeU+NOylv2ScJz9NMKrA
lpc_rms=-25.84
pitch_keycenter=A#5
sample=Flute_overblown_sus_MF_A#5.opus

<region>
hikey=a#4
hivel=127
lokey=a4
loop_end=282173
loop_mode=loop_continuous
loop_start=80334
loop_xfade=24457
lovel=0
lpc=3RcxQhHy2sISBbVCTPvFwQ8Z1b/aF7pA23ogP4XuKMFCx+VAQZP/wNOmZEEMnzrBUsIxQXkgRsHYPyxBllotwSAMAkHal4LAXBzqQNijHMGI9fxAr48XwOyG2cCTs8NA
lpc_rms=-25.11
pitch_keycenter=A#4
sample=Flute_overblown_sus_MF_A#4.opus

<group>
amp_veltrack=0
ampeg_release=0.20
group_label=FF
lpc_hicc1=127
lpc_locc1=85

<region>
hikey=g#6
hivel=127
lokey=g6
loop_end=330577
loop_mode=loop_continuous
loop_start=94114
loop_xfade=28652
lovel=0
lpc=WtBXQleNxcEXhPDAQo2xPwPMTD9J4IhASNASQRqrwkEgHWi/PmdKwc3X3EBIHqzAKYhEQcOiL8Hzhw3ChqnhQB6XgkFhCTLAsFLZvkkjSEAR207BtOGHwQ0HgcDYZypB
lpc_rms=-6.97
pitch_keycenter=g#6
sample=Flute_overblown_sus_FF_G#6.opus

<region>
hikey=g#5
hivel=127
lokey=g5
loop_end=312496
loop_mode=loop_continuous
loop_start=88967
loop_xfade=27085
lovel=0
lpc=TOaFQRly18GrMyxB3657QFi/ZsCDB3VATG19v+m8IMARqktAAgP5vynLTkCAPhDAXjewP9wI8D51Wi9AWbkhwEezk791GBA/zo76P3esSL0p5a6/nrYbQM1OPr+NkwI/
lpc_rms=-17.39
pitch_keycenter=g#5
sample=Flute_overblown_sus_FF_G#5.opus

<region>
hikey=g#4
hivel=127
lokey=g4
loop_end=282686
loop_mode=loop_continuous
loop_start=80480
loop_xfade=24501
lovel=0
lpc=o8ayQTKkWsIG7DFCC2RAwYNLWD+OAhFATHZHwKIT5L/XmEhAx9FOwGUZdEDnhiTA0GBqQG8+a8AhZ9w/1aapv/TZhT8eXIy/YYg3QOexgcCs9kRAe6A2v7qFgL84ujo/
lpc_rms=-19.60
pitch_keycenter=g#4
sample=Flute_overblown_sus_FF_G#4.opus

<region>
hikey=f#6
hivel=127
lokey=f6
loop_end=331277
loop_mode=loop_continuous
loop_start=94314
loop_xfade=28713
lovel=0
lpc=FBStQZA2ecFIS5Y7Ji+WQNpugr9K331AWRYlQFEEpz/gGgo/l203v9RU2T8iRQHAwCmAQO2EU8AwkDpA5OCvwLw9SMEObh9B7wBWQKt0vMD44T8+T5cPwK3yQsC2GbW+
lpc_rms=-15.22
pitch_keycenter=f#6
sample=Flute_overblown_sus_FF_F#6.opus

<region>
hikey=f#5
hivel=127
lokey=f5
loop_end=316985
loop_mode=loop_continuous
loop_start=90245
loop_xfade=27474
lovel=0
lpc=G0rxQQ7PZ8K82AFCnnkGQKXYCcGbbCNB7L7cwOT8IT82r/s+hXfJP362nD9bqXnAc+yqQKVaAMEJZg9BYbtVPzYRXD1F2LzA751IPkHzab/V+/FAljn7v6qoRsC+wSdA
lpc_rms=-13.84
pitch_keycenter=f#5
sample=Flute_overblown_sus_FF_F#5.opus

<region>
hikey=f#4
hivel=127
lokey=f4
loop_end=314072
loop_mode=loop_continuous
loop_start=89415
loop_xfade=27222
lovel=0
lpc=eCHdQSrbhsLQsWNCCXWkwSy38EBIN1rAE/IMQDHY48B1iOhAIamVwJndpEDqKnHAr0yhQAAlJMFzfD9B6MIYwRews0CcXuu+zQ/wv7wJiD/xownAs4BTwP53PEHxktjA
lpc_rms=-17.73
pitch_keycenter=f#4
sample=Flute_overblown_sus_FF_F#4.opus

<region>
hikey=e6
hivel=127
lokey=d#6
loop_end=326804
loop_mode=loop_continuous
loop_start=93040
loop_xfade=28325
lovel=0
lpc=Ih8cQZOpTMFngetAjhwePzrnxr/HMxNAUBnyPgVOjz9C/qA/Ulphvq7p7j8Dvzu9LwSNP96YMT2/aO0+1rDEvvVkCkD8q4S/9ANVwHayv0BCfu6/BsXgvzLQEUDTwPu/
lpc_rms=-18.18
pitch_keycenter=e6
sample=Flute_overblown_sus_FF_E6.opus

<region>
hikey=e5
hivel=127
lokey=d#5
loop_end=321913
loop_mode=loop_continuous
loop_start=91648
loop_xfade=27901
lovel=0
lpc=JxGlQTxJIsLIEchBofizvwi0wcDiuNFA6ZGbv3bR9b/P2Is/htTNv5jmC0C1V+S/cSf7P8UhTb9OSS1Aa2ZEwLkK5b26VV1ACdMGwE3plz7WUcE99AjJPwPAp8Aqe41A
lpc_rms=-18.54
pitch_keycenter=e5
sample=Flute_overblown_sus_FF_E5.opus

<region>
hikey=e4
hivel=127
lokey=d#4
loop_end=279355
loop_mode=loop_continuous
loop_start=79532
loop_xfade=24213
lovel=0
lpc=96TeQSQ2iMLJv11CIlSBwV12Ij8l6bpAxKOTwEtWdcD+GY1A3KKbwKF3z0D2JmTAmoiGQPRQzcDna7dAkE2cwEyCIkCdySdAIu0owD6EKsBBNJhAihrTwH5MzUBQhvi/
lpc_rms=-19.32
pitch_keycenter=e4
sample=Flute_overblown_sus_FF_E4.opus

<region>
hikey=d6
hivel=127
lokey=c#6
loop_end=319459
loop_mode=loop_continuous
loop_start=90949
loop_xfade=27689
lovel=0
lpc=h1SSQdRqtcGg0OJAkHGqQHqgSMAlD6VAQQYIvkmEQz4yQBRA17h1PHeTWkDc2Lq/yGMtQG4Nnz70EM0/uCqhP036DL97vE9AWupjvqlT1j6c9fHAIy2wQDUyBkH2hdnA
lpc_rms=-15.57
pitch_keycenter=d6
sample=Flute_overblown_sus_FF_D6.opus

<region>
hikey=d5
hivel=127
lokey=c#5
loop_end=319248
loop_mode=loop_continuous
loop_start=90889
loop_xfade=27670
lovel=0
lpc=1qiBQcyCEsLFou1BNXgMwcgCuD4eThk/eI3mv89c3T+WJyy/cQ5WP4xWiT/8An3AB6KFQE9/77+A7Bc+rL6+PyUjlb3ZGSPAvF9vQA9bjMCOgaLA7UWmQVOpncH9jtxA
lpc_rms=-18.09
pitch_keycenter=d5
sample=Flute_overblown_sus_FF_D5.opus

<region>
hikey=d4
hivel=127
lokey=c#4
loop_end=302529
loop_mode=loop_continuous
loop_start=86129
loop_xfade=26221
lovel=0
lpc=YbjQQS/QesLQ5EhCsXSCwcBliEDpHH9Axua+wFQv6b5oZUq/P51QP9uwLECIDzPA7SCOQKNij8DOtE9AigZwwNKUdz8ZkVQ/OcgLQCPS7r8/D8E/SjGpv2HATMAH4UBA
lpc_rms=-22.54
pitch_keycenter=d4
sample=Flute_overblown_sus_FF_D4.opus

<region>
hikey=c7
hivel=127
lokey=b6
loop_end=356054
loop_mode=loop_continuous
loop_start=101368
loop_xfade=30861
lovel=0
lpc=5wTmQVotksHaMVK/hT0GQZI+BsAEwslABUdsQHy2vr/ffHVAPe6hPhXFOUBLtirBqOOPQJ0pC0HW9RvAfD6MPlg2KMBIOp4/UHuDPlz0qj9IGQ9AX+MNwJ6ax8BnMiFA
lpc_rms=-8.98
pitch_keycenter=C7
sample=Flute_overblown_sus_FF_C7.opus

<region>
hikey=c6
hivel=127
lokey=b5
loop_end=318168
loop_mode=loop_continuous
loop_start=90582
loop_xfade=27577
lovel=0
lpc=hcGqQZwq8cFLkSNB/NVIQAxET8D7PYlAiLAewOE+9T8Aaoe+VrYRwMOrvEBLeTzAhAQnQJRuY8CHXBI/mgpFQPB2nb2UItS+X7SXPzTfg7/YRQ9ASg7Pvznj98BU4fVA
lpc_rms=-15.57
pitch_keycenter=c6
sample=Flute_overblown_sus_FF_C6.opus

<region>
hikey=c5
hivel=127
lokey=b4
loop_end=286335
loop_mode=loop_continuous
loop_start=81519
loop_xfade=24818
lovel=0
lpc=8DONQZooI8Ja0wtC8atrwWOpU0BBcYZATDafwAIupD/2bAe+Jnqnv9rTJkBheDPARQKTQBkVX8CIlCxAL49RwLK4wT9xi8C9Ng6avlWoUT9VxUNApvQBwbRSrkBzh9y+
lpc_rms=-17.98
pitch_keycenter=c5
sample=Flute_overblown_sus_FF_C5.opus

<region>
hivel=127
key=c4
loop_end=316573
loop_mode=loop_continuous
loop_start=90127
loop_xfade=27439
lovel=0
lpc=D4KHQQ9LHMJr0vBBs34bwRy/1T+GQbJAsODdwDw93z+6LCS/AxUhv1NIzT8EyRC/c/IMQMBQ9r86kxA/iprwv8ba5z4QAf0/fvy/v29kwD4H+we7+169PzuZF8C3mYI/
lpc_rms=-22.93
sample=Flute_overblown_sus_FF_C4.opus

<region>
hikey=a#6
hivel=127
lokey=a6
loop_end=334042
loop_mode=loop_continuous
loop_start=95101
loop_xfade=28953
lovel=0
lpc=NheFQWQ9rMAxXDTAM9TqP6Mkm7+wFjpAp+VdQKdVOr/H5eE/O/SNv4iGK0D/zARAkgbvwDCOH8EPjMNAtAoVP19VZb7Y/1++fmErwOcIKMBczAQ/d3ECvzGPMr8yfa+/
lpc_rms=-15.95
offset=11969
pitch_keycenter=a#6
sample=Flute_overblown_sus_FF_A#6.opus

<region>
hikey=a#5
hivel=127
lokey=a5
loop_end=293480
loop_mode=loop_continuous
loop_start=83553
loop_xfade=25437
lovel=0
lpc=YJVkQRKenMGKWQZBcTBUPbhObb9oKmBAbsOQv/b+kT+bVnK+7E8TvUtRA0AWUtW/WInFQF06N7+shUDAF0+AvrdqKkDqNNO/g+pPQB0Ooj3wbGK/NRfSPzjml7/9P9E/
lpc_rms=-19.13
pitch_keycenter=a#5
sample=Flute_overblown_sus_FF_A#5.opus

<region>
hikey=a#4
hivel=127
lokey=a4
loop_end=288198
loop_mode=loop_continuous
loop_start=82049
loop_xfade=24979
lovel=0
lpc=jXutQdxxWcKvhENCVq6IwR1ztz5j9C9A6qD5vzOyMDsUT5y9L3YrPHorWz8RtQ3Au0m0QHVq38BeO3tApxyivv4UAD2pgrq+CgEWPhNjYr/bvXU+iVmnQEEPFsHXSqBA
lpc_rms=-19.25
pitch_keycenter=a#4
sample=Flute_overblown_sus_FF_A#4.opus

